<?xml version="1.0" ?><!DOCTYPE svg  PUBLIC '-//W3C//DTD SVG 1.1//EN'  'http://www.w3.org/Graphics/SVG/1.1/DTD/svg11.dtd'><svg height="100%" style="fill-rule:evenodd;clip-rule:evenodd;stroke-linecap:round;stroke-linejoin:round;stroke-miterlimit:1.5;" version="1.1" viewBox="0 0 250 250" width="100%" xml:space="preserve" xmlns="http://www.w3.org/2000/svg" xmlns:serif="http://www.serif.com/" xmlns:xlink="http://www.w3.org/1999/xlink"><g transform="matrix(0.825136,0.825136,-1.26803,1.26803,218.627,-153.718)"><rect height="156.993" style="fill:rgb(238,190,109);" width="26.136" x="98.864" y="75.874"/></g><path d="M217.058,37.134L225.558,45.634L26.487,244.705L4.921,223.139L5.421,222.639L18.487,235.705L217.058,37.134Z" style="fill:rgb(226,164,59);"/><g transform="matrix(0.825136,0.825136,-1.26803,1.26803,218.627,-153.718)"><rect height="156.993" style="fill:none;stroke:black;stroke-width:4.96px;" width="26.136" x="98.864" y="75.874"/></g><g transform="matrix(0.862642,0.862642,-0.862642,0.862642,126.334,-68.8408)"><path d="M160.752,23.427L111.364,19.427L61.801,23.427L61.801,79.021L111.364,83.021L160.752,79.021L160.752,23.427Z" style="fill:rgb(64,64,64);"/></g><g transform="matrix(0.707107,0.707107,-0.707107,0.707107,102.619,-105.068)"><path d="M178.137,32.556L178.244,32.547L238.495,37.427L238.495,105.25L178.244,110.13L178.137,110.121L178.137,32.556Z" style="fill:rgb(45,44,44);"/></g><g transform="matrix(0.862642,0.862642,-0.862642,0.862642,126.334,-68.8408)"><path d="M160.752,23.427L111.364,19.427L61.801,23.427L61.801,79.021L111.364,83.021L160.752,79.021L160.752,23.427Z" style="fill:none;stroke:black;stroke-width:6.15px;"/></g><g transform="matrix(0.862642,0.862642,-0.610414,0.610414,114.634,-57.1416)"><path d="M111.364,21.427L111.364,85.021" style="fill:none;stroke:black;stroke-width:7.1px;"/></g></svg>